<svg width="20" height="20" viewBox="0 0 20 20" fill="none" xmlns="http://www.w3.org/2000/svg">
<path d="M8.43102 14.9888H2.40259" stroke="#4F46E5" stroke-width="1.5" stroke-linecap="round" stroke-linejoin="round"/>
<path fill-rule="evenodd" clip-rule="evenodd" d="M17.5981 14.9888C17.5981 16.3143 16.5236 17.3888 15.1981 17.3888C13.8726 17.3888 12.7981 16.3143 12.7981 14.9888C12.7981 13.6623 13.8726 12.5888 15.1981 12.5888C16.5236 12.5888 17.5981 13.6623 17.5981 14.9888Z" stroke="#4F46E5" stroke-width="1.5" stroke-linecap="round" stroke-linejoin="round"/>
<path d="M11.5688 5.21841H17.5983" stroke="#4F46E5" stroke-width="1.5" stroke-linecap="round" stroke-linejoin="round"/>
<path fill-rule="evenodd" clip-rule="evenodd" d="M2.4021 5.21842C2.4021 6.54489 3.47661 7.61842 4.8021 7.61842C6.12759 7.61842 7.2021 6.54489 7.2021 5.21842C7.2021 3.89293 6.12759 2.81842 4.8021 2.81842C3.47661 2.81842 2.4021 3.89293 2.4021 5.21842Z" stroke="#4F46E5" stroke-width="1.5" stroke-linecap="round" stroke-linejoin="round"/>
</svg>
