<svg width="28" height="28" viewBox="0 0 28 28" fill="none" xmlns="http://www.w3.org/2000/svg">
<path d="M24.5 9.04169H3.5C3.02167 9.04169 2.625 8.64502 2.625 8.16669C2.625 7.68835 3.02167 7.29169 3.5 7.29169H24.5C24.9783 7.29169 25.375 7.68835 25.375 8.16669C25.375 8.64502 24.9783 9.04169 24.5 9.04169Z" fill="#4F46E5"/>
<path d="M24.5 14.875H3.5C3.02167 14.875 2.625 14.4783 2.625 14C2.625 13.5217 3.02167 13.125 3.5 13.125H24.5C24.9783 13.125 25.375 13.5217 25.375 14C25.375 14.4783 24.9783 14.875 24.5 14.875Z" fill="#4F46E5"/>
<path d="M24.5 20.7083H3.5C3.02167 20.7083 2.625 20.3116 2.625 19.8333C2.625 19.355 3.02167 18.9583 3.5 18.9583H24.5C24.9783 18.9583 25.375 19.355 25.375 19.8333C25.375 20.3116 24.9783 20.7083 24.5 20.7083Z" fill="#4F46E5"/>
</svg>
