<svg width="18" height="18" viewBox="0 0 18 18" fill="none" xmlns="http://www.w3.org/2000/svg">
<path fill-rule="evenodd" clip-rule="evenodd" d="M9.59509 1.86736L11.5251 5.74986C11.6218 5.94569 11.8084 6.08236 12.0251 6.11403L16.3459 6.73819C16.5209 6.76153 16.6784 6.85319 16.7859 6.99319C16.9876 7.25569 16.9568 7.62736 16.7151 7.85319L13.5834 10.8815C13.4243 11.0315 13.3534 11.2515 13.3951 11.4657L14.1451 15.739C14.1976 16.0932 13.9559 16.4249 13.6018 16.4824C13.4551 16.5049 13.3051 16.4815 13.1718 16.4157L9.32342 14.3982C9.13009 14.2932 8.89842 14.2932 8.70509 14.3982L4.82842 16.4265C4.50425 16.5915 4.10759 16.469 3.93092 16.1515C3.86342 16.0232 3.84009 15.8774 3.86342 15.7349L4.61342 11.4615C4.65092 11.2482 4.58009 11.029 4.42509 10.8782L1.27675 7.85069C1.02009 7.59569 1.01842 7.18069 1.27425 6.92403C1.27509 6.92319 1.27592 6.92153 1.27675 6.92069C1.38259 6.82486 1.51259 6.76069 1.65342 6.73569L5.97509 6.11153C6.19092 6.07736 6.37675 5.94236 6.47509 5.74653L8.40342 1.86736C8.48092 1.70986 8.61842 1.58903 8.78509 1.53403C8.95259 1.47819 9.13592 1.49153 9.29342 1.57069C9.42259 1.63486 9.52842 1.73903 9.59509 1.86736Z" stroke="white" stroke-width="1.5" stroke-linecap="round" stroke-linejoin="round"/>
</svg>
