<svg width="18" height="15" viewBox="0 0 18 15" fill="none" xmlns="http://www.w3.org/2000/svg">
<path d="M15.0481 1.84168C13.9203 1.33308 12.7114 0.957148 11.4473 0.743386C11.436 0.741224 11.4244 0.742617 11.4139 0.747371C11.4035 0.752126 11.3948 0.760006 11.3891 0.769922C11.2343 1.04192 11.0618 1.39647 10.9409 1.67657C9.60016 1.47625 8.2371 1.47625 6.89636 1.67657C6.76171 1.36614 6.60988 1.06346 6.44156 0.769922C6.43585 0.759884 6.42722 0.751825 6.41682 0.746821C6.40641 0.741816 6.39473 0.740103 6.38333 0.741911C5.11991 0.955674 3.91105 1.3316 2.78253 1.84095C2.77282 1.84502 2.76459 1.85196 2.75894 1.86085C0.465044 5.23314 -0.163714 8.52214 0.145136 11.7699C0.145996 11.7778 0.148465 11.7855 0.152393 11.7925C0.156322 11.7995 0.161627 11.8056 0.167987 11.8104C1.50687 12.7852 3.00022 13.5277 4.58551 14.007C4.59656 14.0104 4.60838 14.0104 4.61942 14.007C4.63047 14.0036 4.64023 13.9969 4.64742 13.9878C4.98856 13.5316 5.29085 13.0476 5.55113 12.5409C5.55474 12.534 5.55682 12.5263 5.55723 12.5185C5.55764 12.5107 5.55637 12.5029 5.5535 12.4957C5.55064 12.4884 5.54625 12.4818 5.54062 12.4764C5.535 12.471 5.52827 12.4668 5.5209 12.4642C5.04473 12.2849 4.58336 12.0685 4.14103 11.817C4.13308 11.8125 4.12638 11.8061 4.12154 11.7983C4.11669 11.7905 4.11385 11.7817 4.11326 11.7726C4.11268 11.7634 4.11437 11.7543 4.11819 11.746C4.122 11.7377 4.12783 11.7304 4.13513 11.7249C4.22801 11.6563 4.32088 11.5849 4.40934 11.5134C4.4173 11.5069 4.42689 11.5028 4.43704 11.5015C4.44719 11.5002 4.45751 11.5018 4.46683 11.506C7.36148 12.8062 10.4964 12.8062 13.3572 11.506C13.3665 11.5015 13.3769 11.4998 13.3872 11.5009C13.3975 11.5021 13.4073 11.5062 13.4154 11.5126C13.5038 11.5848 13.596 11.6563 13.6896 11.7249C13.697 11.7303 13.7029 11.7374 13.7068 11.7457C13.7108 11.7539 13.7126 11.763 13.7122 11.7722C13.7117 11.7813 13.709 11.7902 13.7043 11.798C13.6996 11.8058 13.693 11.8124 13.6852 11.817C13.2444 12.0706 12.7859 12.2851 12.3046 12.4635C12.2972 12.4662 12.2904 12.4704 12.2848 12.4759C12.2792 12.4814 12.2748 12.488 12.2719 12.4953C12.2691 12.5027 12.2678 12.5105 12.2682 12.5184C12.2686 12.5262 12.2707 12.5339 12.2743 12.5409C12.5397 13.0473 12.8434 13.5294 13.1773 13.9871C13.1842 13.9965 13.1939 14.0035 13.205 14.0072C13.2161 14.0109 13.228 14.0111 13.2392 14.0077C14.8272 13.5298 16.323 12.7869 17.6634 11.8104C17.6699 11.8058 17.6754 11.7999 17.6795 11.7931C17.6835 11.7862 17.6861 11.7785 17.687 11.7706C18.0555 8.01575 17.0693 4.75328 15.0709 1.86232C15.066 1.85293 15.0579 1.84561 15.0481 1.84168ZM5.98381 9.79219C5.11254 9.79219 4.39386 9.00422 4.39386 8.03786C4.39386 7.07077 5.09854 6.28353 5.98381 6.28353C6.87572 6.28353 7.58777 7.0774 7.57376 8.03786C7.57376 9.00495 6.86908 9.79219 5.98381 9.79219ZM11.8623 9.79219C10.9903 9.79219 10.2723 9.00422 10.2723 8.03786C10.2723 7.07077 10.9763 6.28353 11.8623 6.28353C12.7542 6.28353 13.4662 7.0774 13.4522 8.03786C13.4522 9.00495 12.7549 9.79219 11.8623 9.79219Z" fill="#6B6B7A"/>
</svg>
