<svg width="18" height="17" viewBox="0 0 18 17" fill="none" xmlns="http://www.w3.org/2000/svg">
<path d="M8.90463 0.267822C6.70426 0.267822 6.42756 0.277958 5.56302 0.316472C4.69848 0.357013 4.10962 0.492826 3.59373 0.693505C3.0526 0.897042 2.56246 1.21631 2.15756 1.62899C1.74513 2.0341 1.4259 2.52419 1.22207 3.06517C1.02139 3.58004 0.884564 4.16992 0.845036 5.03142C0.806522 5.89799 0.796387 6.17367 0.796387 8.37708C0.796387 10.5785 0.806522 10.8542 0.845036 11.7187C0.885577 12.5822 1.02139 13.1711 1.22207 13.687C1.42984 14.2201 1.70654 14.6721 2.15756 15.1231C2.60757 15.5742 3.0596 15.8519 3.59272 16.0586C4.10962 16.2593 4.69747 16.3961 5.561 16.4357C6.42655 16.4742 6.70223 16.4843 8.90463 16.4843C11.107 16.4843 11.3817 16.4742 12.2473 16.4357C13.1098 16.3951 13.7007 16.2593 14.2166 16.0586C14.7573 15.855 15.2471 15.5357 15.6517 15.1231C16.1027 14.6721 16.3794 14.2201 16.5872 13.687C16.7869 13.1711 16.9237 12.5822 16.9642 11.7187C17.0027 10.8542 17.0129 10.5785 17.0129 8.37607C17.0129 6.17367 17.0027 5.89799 16.9642 5.03243C16.9237 4.16992 16.7869 3.58004 16.5872 3.06517C16.3834 2.52417 16.0642 2.03408 15.6517 1.62899C15.2469 1.21616 14.7568 0.896866 14.2155 0.693505C13.6986 0.492826 13.1088 0.355999 12.2462 0.316472C11.3807 0.277958 11.106 0.267822 8.90261 0.267822H8.90565H8.90463ZM8.17793 1.72933H8.90565C11.0706 1.72933 11.327 1.73643 12.1814 1.77596C12.9719 1.81143 13.4017 1.9442 13.6875 2.05468C14.0655 2.20164 14.3361 2.37799 14.6199 2.66178C14.9037 2.94557 15.0791 3.21517 15.226 3.59423C15.3375 3.87903 15.4693 4.30877 15.5047 5.09932C15.5443 5.95373 15.5524 6.21015 15.5524 8.37404C15.5524 10.5379 15.5443 10.7954 15.5047 11.6498C15.4693 12.4403 15.3365 12.8691 15.226 13.1549C15.096 13.5069 14.8885 13.8253 14.6189 14.0863C14.3351 14.3701 14.0655 14.5454 13.6865 14.6924C13.4027 14.8039 12.9729 14.9356 12.1814 14.9721C11.327 15.0106 11.0706 15.0198 8.90565 15.0198C6.74075 15.0198 6.48331 15.0106 5.6289 14.9721C4.83835 14.9356 4.40962 14.8039 4.12381 14.6924C3.77161 14.5626 3.45298 14.3555 3.19136 14.0863C2.92151 13.8248 2.71371 13.5062 2.58324 13.1539C2.47277 12.8691 2.33999 12.4393 2.30452 11.6488C2.26601 10.7944 2.2579 10.5379 2.2579 8.37202C2.2579 6.20711 2.26601 5.9517 2.30452 5.0973C2.34101 4.30674 2.47277 3.87701 2.58426 3.59119C2.73122 3.21314 2.90757 2.94253 3.19136 2.65874C3.47515 2.37495 3.74475 2.19961 4.12381 2.05265C4.40962 1.94116 4.83835 1.8094 5.6289 1.77292C6.37689 1.73846 6.66676 1.72832 8.17793 1.72731V1.72933ZM13.2334 3.0753C13.1056 3.0753 12.9791 3.10047 12.8611 3.14937C12.743 3.19826 12.6358 3.26993 12.5454 3.36029C12.4551 3.45064 12.3834 3.5579 12.3345 3.67595C12.2856 3.79399 12.2604 3.92052 12.2604 4.04829C12.2604 4.17607 12.2856 4.30259 12.3345 4.42064C12.3834 4.53869 12.4551 4.64595 12.5454 4.7363C12.6358 4.82665 12.743 4.89832 12.8611 4.94722C12.9791 4.99612 13.1056 5.02128 13.2334 5.02128C13.4915 5.02128 13.739 4.91877 13.9214 4.7363C14.1039 4.55383 14.2064 4.30635 14.2064 4.04829C14.2064 3.79024 14.1039 3.54276 13.9214 3.36029C13.739 3.17781 13.4915 3.0753 13.2334 3.0753ZM8.90565 4.21248C8.35335 4.20387 7.80485 4.30521 7.29208 4.51061C6.77932 4.716 6.31254 5.02135 5.91892 5.40888C5.52531 5.79641 5.21271 6.25836 4.99934 6.76786C4.78597 7.27736 4.67608 7.82421 4.67608 8.37658C4.67608 8.92895 4.78597 9.4758 4.99934 9.98529C5.21271 10.4948 5.52531 10.9567 5.91892 11.3443C6.31254 11.7318 6.77932 12.0371 7.29208 12.2425C7.80485 12.4479 8.35335 12.5493 8.90565 12.5407C9.99878 12.5236 11.0414 12.0774 11.8084 11.2983C12.5754 10.5193 13.0053 9.46984 13.0053 8.37658C13.0053 7.28331 12.5754 6.23388 11.8084 5.45482C11.0414 4.67576 9.99878 4.22954 8.90565 4.21248ZM8.90565 5.67298C9.62255 5.67298 10.3101 5.95777 10.817 6.4647C11.3239 6.97163 11.6087 7.65917 11.6087 8.37607C11.6087 9.09297 11.3239 9.78051 10.817 10.2874C10.3101 10.7944 9.62255 11.0792 8.90565 11.0792C8.18875 11.0792 7.5012 10.7944 6.99428 10.2874C6.48735 9.78051 6.20256 9.09297 6.20256 8.37607C6.20256 7.65917 6.48735 6.97163 6.99428 6.4647C7.5012 5.95777 8.18875 5.67298 8.90565 5.67298Z" fill="white"/>
</svg>
