<svg width="19" height="11" viewBox="0 0 19 11" fill="none" xmlns="http://www.w3.org/2000/svg">
<path d="M10.7416 5.37591C10.7416 8.1235 8.5081 10.3514 5.75166 10.3514C5.0974 10.3523 4.44937 10.2243 3.84457 9.97472C3.23977 9.72515 2.69006 9.3589 2.22681 8.89688C1.76355 8.43486 1.39584 7.88612 1.14466 7.28199C0.893478 6.67786 0.763749 6.03018 0.762878 5.37591C0.762878 2.62722 2.99633 0.400397 5.75166 0.400397C6.40602 0.39938 7.05417 0.527276 7.65909 0.776783C8.26402 1.02629 8.81386 1.39252 9.27723 1.85455C9.7406 2.31658 10.1084 2.86537 10.3597 3.46957C10.6109 4.07378 10.7407 4.72155 10.7416 5.37591ZM16.2146 5.37591C16.2146 7.96318 15.0979 10.0595 13.7202 10.0595C12.3426 10.0595 11.2258 7.96207 11.2258 5.37591C11.2258 2.78864 12.3426 0.692293 13.7202 0.692293C15.0979 0.692293 16.2146 2.78975 16.2146 5.37591ZM18.4536 5.37591C18.4536 7.6934 18.0611 9.57193 17.5757 9.57193C17.0914 9.57193 16.6989 7.69229 16.6989 5.37591C16.6989 3.05843 17.0914 1.17989 17.5768 1.17989C18.0611 1.17989 18.4536 3.05843 18.4536 5.37591Z" fill="#6B6B7A"/>
</svg>
