<svg width="17" height="15" viewBox="0 0 17 15" fill="none" xmlns="http://www.w3.org/2000/svg">
<path d="M5.58119 14.01C11.7009 14.01 15.0486 8.9041 15.0486 4.48404C15.0486 4.34116 15.0486 4.19624 15.0425 4.05336C15.6943 3.57827 16.2568 2.99009 16.7037 2.31636C16.0949 2.58666 15.4497 2.7648 14.7891 2.84501C15.4849 2.42621 16.0061 1.76727 16.2557 0.990648C15.602 1.38063 14.8864 1.6544 14.1405 1.79996C13.6389 1.26214 12.9753 0.905857 12.2523 0.786288C11.5294 0.666718 10.7874 0.790537 10.1414 1.13857C9.4954 1.48659 8.98139 2.03941 8.679 2.71138C8.3766 3.38335 8.3027 4.13698 8.46874 4.85553C7.14582 4.78873 5.85162 4.44267 4.67007 3.8398C3.48852 3.23693 2.44602 2.3907 1.61018 1.35601C1.18585 2.09396 1.05635 2.96687 1.24799 3.79747C1.43962 4.62807 1.93801 5.3541 2.64195 5.82812C2.11445 5.81008 1.59854 5.66744 1.13584 5.41173V5.45766C1.13675 6.23072 1.40271 6.97975 1.88877 7.57814C2.37482 8.17654 3.05116 8.5876 3.80346 8.74183C3.51791 8.82104 3.22294 8.86053 2.92675 8.8592C2.71795 8.85984 2.50956 8.84036 2.30444 8.80103C2.51707 9.46649 2.93108 10.0483 3.4885 10.465C4.04591 10.8817 4.71881 11.1125 5.41294 11.1249C4.23376 12.0574 2.77716 12.5632 1.27774 12.5608C1.01353 12.5619 0.749508 12.5466 0.487183 12.5149C2.00901 13.4918 3.77639 14.0105 5.58119 14.01Z" fill="white"/>
</svg>
